<?xml version="1.0" encoding="UTF-8"?><!DOCTYPE svg PUBLIC "-//W3C//DTD SVG 1.1//EN" "http://www.w3.org/Graphics/SVG/1.1/DTD/svg11.dtd"><svg xmlns="http://www.w3.org/2000/svg" xmlns:xlink="http://www.w3.org/1999/xlink"><defs>
        <linearGradient id="paint0_linear" x1="17.798" y1="0" x2="17.798" y2="40.462" gradientUnits="userSpaceOnUse">
            <stop stop-color="#0F0F0F" stop-opacity="0"/>
            <stop offset="1" stop-color="#0F0F0F" stop-opacity=".5"/>
        </linearGradient>
    
        <clipPath id="clip0">
            <path fill="#fff" d="M0 0h139.832v42.895H0z"/>
        </clipPath>
        <clipPath id="clip1">
            <path fill="#fff" transform="translate(43.704 3.9)" d="M0 0h96.128v35.096H0z"/>
        </clipPath>
        <clipPath id="clip2">
            <path fill="#fff" transform="translate(43.704 11.9)" d="M0 0h96.128v27.096H0z"/>
        </clipPath>
    </defs><symbol id="ico-color-download" viewBox="0 0 36 41">
    <path d="M17.798 0L.44 10.115v20.231l17.358 10.116 17.358-10.116v-20.23L17.798 0z" fill="url(#paint0_linear)"/>
    <path fill-rule="evenodd" clip-rule="evenodd" d="M17.798 1.157l16.358 9.533v19.082l-16.358 9.532L1.44 29.772V10.69l16.358-9.533zM.44 10.115L17.798 0l17.358 10.115v20.231L17.798 40.462.44 30.346v-20.23z" fill="#F38C00"/>
    <path fill-rule="evenodd" clip-rule="evenodd" d="M21.581 19l-4 5-4-5h3v-7h2v7h3zm-12 7h16v-7h2v7c0 1.103-.896 2-2 2h-16c-1.102 0-2-.897-2-2v-7h2v7z" fill="#F38C00"/>
    
</symbol><symbol id="ico-color-error" viewBox="0 0 20 21">
    <circle cx="10" cy="10.825" r="10" fill="#D33F49"/>
    <path d="M10.933 12.674H9.066l-.294-6.802h2.455l-.294 6.802zm-2.229 2.119c0-.337.12-.613.362-.827.246-.219.552-.328.916-.328.365 0 .668.11.91.328.246.214.369.49.369.827 0 .337-.123.615-.37.834-.24.214-.544.321-.909.321-.364 0-.67-.107-.916-.321a1.076 1.076 0 01-.362-.834z" fill="#FBFFFE"/>
</symbol><symbol id="ico-color-example" viewBox="0 0 51.9 51.9">
    <circle cx="26" cy="26" r="26" fill="#fc2c38"/>
    <path d="M40 21.9h-.8l-3.1-8.7H16l-3.1 8.7H8.8v2.8h3.1v14h5.4v-4.4h17.3v4.4H40V24.6h3.1v-2.8H40zm-22.1-6.5h16.5l2.4 6.5H15.5l2.4-6.5zm3.9 13.7h-6.5v-2.8h6.5v2.8zm15.3 0h-6.5v-2.8h6.5v2.8z" fill-rule="evenodd" clip-rule="evenodd" fill="#fff"/>
</symbol><symbol id="ico-color-logo" viewBox="0 0 140 43">
    <g clip-path="url(#clip0)">
        <path fill-rule="evenodd" clip-rule="evenodd" d="M14.038 4.929l-.318-1.23.6-3.27.494-.317a.835.835 0 011.164.352l.423.914 1.093 2.355.424 1.899-1.023.738 1.164-.07.282 1.3.106 2.496-1.623 1.512 1.693.246.141 1.054-1.657 1.371.246.211 1.658.07.212 1.055.67 3.726-2.151 1.336-.776-1.722-.353-1.125-.141-3.023-.035-1.266-.424-.668-.529-1.125.318-.632-.635-.493-.247-1.195 1.763-.703-1.94-.422-.529-2.285 1.059-.703-1.13-.386zm2.222 23.096l1.975-.668 1.41-.281 3.916.28 1.517.669-.177 7.277-4.797 2.812-2.61-1.371 1.023-.422-1.975-.07-3.668-1.934-.318-1.02v-1.581l-.352-2.18.74.036-.917-1.055-.14-.844s-.46-1.617-.53-1.793c.177-.21 1.235-1.37 1.235-1.37l2.469-.88.917-.175 1.622.949-.776-1.266.706-.386.952-.703 2.116-.035-1.305-.457 1.411-1.16.564-.352.247.844 3.21 2.074 1.234-.387 3.351 2.777-.388 5.836-.6.914h.53l-.847 1.792.776-.28-.317 4.57-8.465 4.71-1.517-.738-.388.035-1.658-.668-.917-1.477-.106.844-1.587-.457s-.987-.457-1.023-.492c-.106-.176-.74-1.652-.74-1.652l-.353-.387-2.434-.352-1.27-.14h-.035l-2.892-.985-1.975-.597-1.058-.738L0 33.122l.282-.422a1.38 1.38 0 011.482-.597l4.303.878-.353 1.16 1.375-.808.988.633.988 1.336v1.124l.776-.527 1.94.738.246.95s.388 0 .459-.07a40.956 40.956 0 011.34-.985c.247.105 6.243 3.234 6.243 3.234l1.693-.984.318.984.81-1.476 3.493-2.215.317-9.245-.6-.282.706-1.02-1.27.634-1.023-.352-4.797-.14-1.516.105-3.28.773-.283 1.125.388 5.73 3.422 1.196 1.975.562 2.363-1.09.247-4.745-.917-.457-2.434-.247-1.587.633.106 1.336 1.023.457 1.41-.07-.14 2.074-1.729-.352-2.187-.703-.211-3.375-.106-.597zm-5.926-11.073c-.105-.211-.388-.633-.388-.633l-.6.035s.213-.879.107-1.055c-.07-.175-.812-2.847-.812-2.847l-.211-.281-2.363-3.164-1.411-1.02-.459.422c-.211.176-.317.457-.317.738l.141 2.461 1.728 3.094 1.446-.633-1.234 1.125 1.975 1.828.459.773.211 2.11.459.984.846 1.02 1.411 2.179.494-.633 1.658-.563-1.482-2.812-.635-1.336s-.282-.527-.423-.773c-.03-.044-.113-.19-.21-.361h-.001a15.774 15.774 0 00-.389-.659zm13.686 2.32l1.058-3.727.247-1.125.105-2.039 1.023-.316v-.598l-.917-.773-.353-2.566.706-1.934 1.41-.07-1.198-.352.917-2.742c.035-.14.14-.21.247-.28a.38.38 0 01.387.034l.459.317a3.02 3.02 0 011.27 2.25v.07l-.635 3.972-.247 2.004-.988.95-.035 1.476-2.61 5.87-.846-.422zm7.018 0l-1.975 2.811.424.422 4.302-4.992.847-1.09.423-.527-.529-.351.917-.492s.318-1.512.247-1.828c-.035-.176-.212-.668-.564-.95a1.248 1.248 0 00-.6-.316c-.14-.035-.282.035-.352.176l-1.094 2.742-.67 1.406.388.387-.106.351-.846.176-.812 2.074z" fill="#F38C00"/>
        <g clip-path="url(#clip1)">
            <g clip-path="url(#clip2)" fill-rule="evenodd" clip-rule="evenodd">
                <path d="M88.95 22.758h4.918l1.248 3.168h2.497l-5.977-14.027h-.114l-5.977 14.027h2.119l1.286-3.168zm2.497-6.108l1.702 4.26h-3.442l1.74-4.26zm-38.701-4.184v2.074h-3.48v11.387h-2.157V14.54h-3.405v-2.074h9.042zm20.164 13.46l-3.027-4.675h-2.157v4.675h-2.155v-13.46h3.783c1.513 0 2.723.377 3.631 1.131.908.754 1.362 1.81 1.362 3.167 0 .83-.189 1.584-.53 2.3-.34.717-.907 1.244-1.664 1.622l3.291 5.203H72.91v.038zm-5.183-6.749h1.93c.87 0 1.475-.226 1.89-.716.38-.49.568-1.018.568-1.584 0-.339-.075-.678-.227-1.055-.151-.34-.416-.641-.756-.905s-.833-.377-1.4-.377h-2.005v4.637zm49.255 6.485c-.681.264-1.475.377-2.307.377-1.4 0-2.611-.302-3.67-.905a6.285 6.285 0 01-2.421-2.451c-.567-1.018-.832-2.15-.832-3.393 0-1.358.265-2.527.832-3.62a6.472 6.472 0 012.345-2.489c1.022-.603 2.157-.905 3.443-.905.795 0 1.513.114 2.194.302.681.226 1.287.49 1.778.792l-.87 1.998c-.983-.716-2.005-1.056-3.064-1.056-.795 0-1.513.227-2.232.641-.719.415-1.249 1.019-1.627 1.735-.416.716-.605 1.546-.605 2.413 0 .943.189 1.734.567 2.489.379.716.908 1.32 1.627 1.734.681.415 1.513.603 2.421.603.643 0 1.249-.113 1.778-.301a4.05 4.05 0 001.324-.755l.908 1.923c-.34.34-.87.641-1.589.868zm22.585-11.122v-2.074h-8.965v13.46h9.23v-2.073h-7.036v-3.658h6.053v-2.073h-6.053V14.54h6.771z" fill="#FBFFFE"/>
                <path d="M119.355 37.563h2.043l.529 1.32h1.022l-2.497-5.844h-.038l-2.497 5.844h.908l.53-1.32zM120.376 35l.719 1.772h-1.437l.718-1.772zm-25.687 3.77a2.62 2.62 0 01-.945.15c-.568 0-1.097-.112-1.551-.376-.454-.264-.757-.604-1.022-1.018-.265-.415-.34-.905-.34-1.433 0-.566.113-1.056.34-1.508.227-.453.568-.792.984-1.056.416-.264.908-.377 1.437-.377.34 0 .644.038.908.113.265.075.53.188.757.34l-.34.829c-.417-.302-.833-.453-1.287-.453-.34 0-.643.076-.945.264-.303.189-.53.415-.681.717-.19.301-.265.64-.265 1.018 0 .377.075.716.227 1.056.151.301.378.565.68.716.303.188.644.264 1.022.264.265 0 .53-.038.757-.113.227-.076.416-.189.567-.302l.378.792c-.189.15-.416.264-.68.377zm-49.877-5.542v4.75h2.8v.868h-3.708v-5.618h.908zm11.614 0v.867H53.59v1.508h2.534v.868H53.59v1.546h2.95v.867h-3.858v-5.656h3.745zm8.588.867v-.867h-3.821v.867h1.437v4.789h.908v-4.789h1.476zm4.502.226a.913.913 0 00.227-.377c.075-.151.075-.302.075-.453v-.188l.681-.038v.151c0 .188-.038.415-.151.603-.114.189-.227.377-.416.453l-.416-.151zm6.885-.113a1.31 1.31 0 01.68-.189c.38 0 .795.113 1.325.49l.34-.678a2.537 2.537 0 00-.794-.377 3.917 3.917 0 00-.984-.114c-.53.038-.945.189-1.248.453-.303.264-.454.64-.454 1.093 0 .34.076.566.227.792.151.226.303.377.53.49.189.113.491.226.794.34.303.113.53.226.719.377.189.113.265.301.265.527 0 .264-.114.49-.303.604-.19.113-.454.188-.719.188a1.76 1.76 0 01-.719-.15c-.264-.114-.491-.227-.68-.378l-.417.717c.227.188.53.34.87.452.34.113.681.151 1.022.151a2.15 2.15 0 001.021-.226c.265-.113.492-.34.643-.566a1.61 1.61 0 00.227-.83c0-.339-.075-.602-.189-.829a1.333 1.333 0 00-.492-.528 6.494 6.494 0 00-.718-.339l-.095-.038c-.334-.132-.602-.239-.775-.377-.19-.15-.303-.301-.303-.528 0-.226.076-.414.227-.527zm25.855 2.715l1.286 1.96h1.021l-1.362-2.186c.303-.15.53-.377.681-.679.152-.301.227-.64.227-.98 0-.566-.189-1.018-.567-1.32-.379-.34-.87-.49-1.513-.49h-1.589v5.656h.908v-1.96H102.256zm-.114-.867h-.794v-1.96h.832c.265 0 .454.037.605.15a.965.965 0 01.303.377c.038.151.075.302.075.453 0 .264-.075.49-.227.678-.151.189-.416.302-.794.302zm11.122-2.828v.867h-2.837v1.508h2.535v.868h-2.535v1.546h2.951v.867h-3.859v-5.656h3.745zm17.478 0v.867h-1.475v4.789h-.908v-4.789h-1.438v-.867h3.821zm8.777.867v-.867h-3.745v5.656h3.858v-.867h-2.95V36.47h2.534v-.867h-2.534v-1.509h2.837z" fill="#F38C00"/>
            </g>
        </g>
    </g>
    
</symbol></svg>